<svg width="16" height="17" viewBox="0 0 16 17" fill="none" xmlns="http://www.w3.org/2000/svg">
<g clip-path="url(#clip0_46_408)">
<path d="M8 0.5C3.58875 0.5 0 4.08875 0 8.5C0 12.9113 3.58875 16.5 8 16.5C12.4113 16.5 16 12.9113 16 8.5C16 4.08875 12.4113 0.5 8 0.5ZM7.53125 4.42676C6.81812 4.39612 6.11218 4.2959 5.43811 4.13293C5.54578 3.87781 5.6626 3.63281 5.78857 3.40063C6.30542 2.44824 6.93994 1.77991 7.53125 1.53784V4.42676ZM7.53125 5.36499V8.03125H4.60339C4.64465 6.9906 4.82202 5.95752 5.11536 5.01782C5.8927 5.21362 6.70874 5.33215 7.53125 5.36499ZM7.53125 8.96875V11.635C6.70874 11.6678 5.8927 11.7864 5.11536 11.9822C4.82202 11.0425 4.64465 10.0094 4.60339 8.96875H7.53125ZM7.53125 12.5732V15.4622C6.93994 15.2201 6.30542 14.5518 5.78857 13.5994C5.6626 13.3672 5.54578 13.1222 5.43811 12.8671C6.11218 12.7041 6.81799 12.6039 7.53125 12.5732ZM8.46875 12.5732C9.18188 12.6039 9.88782 12.7041 10.5619 12.8671C10.4542 13.1222 10.3374 13.3672 10.2114 13.5994C9.69458 14.5518 9.06006 15.2201 8.46875 15.4622V12.5732ZM8.46875 11.635V8.96875H11.3966C11.3553 10.0094 11.178 11.0425 10.8846 11.9822C10.1073 11.7864 9.29126 11.6678 8.46875 11.635ZM8.46875 8.03125V5.36499C9.29126 5.33215 10.1073 5.21362 10.8846 5.01782C11.178 5.95752 11.3553 6.9906 11.3966 8.03125H8.46875ZM8.46875 4.42676V1.53784C9.06006 1.77991 9.69458 2.44824 10.2114 3.40063C10.3374 3.63281 10.4542 3.87781 10.5619 4.13293C9.88782 4.2959 9.18188 4.39612 8.46875 4.42676ZM11.0354 2.95349C10.8007 2.52087 10.5457 2.13953 10.2769 1.81421C11.2141 2.13428 12.0631 2.64636 12.7771 3.3031C12.3699 3.52124 11.931 3.71069 11.4694 3.86902C11.3384 3.5509 11.1936 3.24487 11.0354 2.95349ZM4.9646 2.95349C4.8064 3.24487 4.66162 3.5509 4.53064 3.86902C4.06897 3.71069 3.63013 3.52112 3.2229 3.3031C3.93689 2.64636 4.78589 2.13428 5.72314 1.81421C5.45435 2.13953 5.19946 2.52075 4.9646 2.95349ZM4.2135 4.75012C3.89355 5.77368 3.70544 6.88953 3.66492 8.03125H0.953491C1.05383 6.50769 1.63892 5.11438 2.5564 4.00525C3.06555 4.29724 3.62317 4.547 4.2135 4.75012ZM3.66492 8.96875C3.70544 10.1106 3.89355 11.2263 4.2135 12.2499C3.62317 12.453 3.06555 12.7028 2.5564 12.9948C1.63892 11.8856 1.05383 10.4923 0.953491 8.96875H3.66492ZM4.53064 13.131C4.66162 13.4491 4.8064 13.7551 4.9646 14.0465C5.19946 14.4791 5.45435 14.8605 5.72314 15.1858C4.78589 14.8657 3.93689 14.3536 3.22302 13.6969C3.63 13.4789 4.06897 13.2893 4.53064 13.131ZM11.0354 14.0465C11.1936 13.7551 11.3384 13.4491 11.4694 13.131C11.931 13.2893 12.3699 13.4789 12.7771 13.6969C12.0631 14.3536 11.2141 14.8657 10.2769 15.1858C10.5457 14.8605 10.8005 14.4792 11.0354 14.0465ZM11.7865 12.2499C12.1064 11.2263 12.2946 10.1105 12.3351 8.96875H15.0465C14.9462 10.4923 14.3611 11.8856 13.4436 12.9948C12.9344 12.7028 12.3768 12.453 11.7865 12.2499ZM12.3351 8.03125C12.2946 6.8894 12.1064 5.77368 11.7865 4.75012C12.3768 4.547 12.9344 4.29724 13.4436 4.00525C14.3611 5.11438 14.9462 6.50769 15.0465 8.03125H12.3351Z" fill="#07275C"/>
</g>
<defs>
<clipPath id="clip0_46_408">
<rect width="16" height="16" fill="white" transform="translate(0 0.5)"/>
</clipPath>
</defs>
</svg>
