<svg width="54" height="54" viewBox="0 0 54 54" fill="none" xmlns="http://www.w3.org/2000/svg">
<g clip-path="url(#clip0_76_434)" filter="url(#filter0_d_76_434)">
<mask id="mask0_76_434" style="mask-type:alpha" maskUnits="userSpaceOnUse" x="8" y="6" width="38" height="38">
<circle cx="27" cy="25" r="19" fill="#C4C4C4"/>
</mask>
<g mask="url(#mask0_76_434)">
<path d="M45.3494 12.7968C45.0036 9.55612 42.4442 6.99615 39.2032 6.65057C31.0757 5.78314 22.9243 5.78314 14.7971 6.65057C11.5561 6.99644 8.99644 9.55612 8.65057 12.7968C7.78314 20.9241 7.78314 29.0757 8.65057 37.2029C8.99644 40.4439 11.5561 43.0036 14.7968 43.3494C22.9241 44.2169 31.0757 44.2169 39.2032 43.3494C42.4442 43.0036 45.0036 40.4439 45.3494 37.2029C46.2169 29.0757 46.2169 20.9243 45.3494 12.7968Z" fill="url(#paint0_radial_76_434)"/>
<path d="M43.2827 14.1714C42.976 11.2957 40.7048 9.02424 37.8288 8.71722C30.6168 7.94778 23.3834 7.94778 16.1714 8.71722C13.2957 9.02424 11.0242 11.2957 10.7172 14.1714C9.94778 21.3834 9.94778 28.6168 10.7172 35.8285C11.0242 38.7045 13.2957 40.976 16.1714 41.2827C23.3834 42.0525 30.6168 42.0525 37.8285 41.2827C40.7045 40.976 42.976 38.7045 43.2827 35.8285C44.0525 28.6168 44.0525 21.3834 43.2827 14.1714Z" fill="url(#paint1_linear_76_434)"/>
<path d="M8.56934 36.4155C8.59543 36.6782 8.62239 36.9409 8.65051 37.2035C8.99638 40.4442 11.5561 43.0039 14.797 43.3498C22.9243 44.2172 31.0759 44.2172 39.2031 43.3498C42.4441 43.0039 45.0035 40.4442 45.3494 37.2035C45.3775 36.9409 45.4044 36.6782 45.4308 36.4155H8.56934Z" fill="url(#paint2_linear_76_434)"/>
<path d="M45.3493 37.2028C45.8155 32.8358 46.0307 28.4618 45.9959 24.0884L37.31 15.4025C36.2248 14.1637 34.6398 13.3905 32.7774 13.3235C28.9473 13.1855 25.105 13.1925 21.2744 13.3241C18.0928 13.4337 15.868 15.5721 15.2974 18.7151C15.1968 19.27 15.1365 19.8321 15.0574 20.3911V29.6052C15.1012 29.9038 15.1655 30.201 15.1855 30.5014C15.3131 32.4131 16.0988 34.0505 17.3567 35.1583L26.1957 43.997C30.5334 44.0274 34.8715 43.8117 39.2031 43.3493C42.4441 43.0035 45.0035 40.4438 45.3493 37.2028Z" fill="url(#paint3_linear_76_434)"/>
<path d="M45.3494 37.203C45.0038 40.4434 42.4435 43.0037 39.2031 43.3492C34.8721 43.8114 30.5332 44.0274 26.196 43.9969L17.3704 35.1713C18.3935 36.0668 19.7271 36.6122 21.2747 36.6704C25.1045 36.8142 28.9476 36.8105 32.7774 36.6725C36.2413 36.5472 38.748 33.9835 38.8561 30.5195C38.9715 26.8417 38.9715 23.1542 38.8561 19.4763C38.8068 17.8783 38.2458 16.4722 37.3158 15.4082L45.9962 24.0886C46.0304 28.4614 45.8153 32.836 45.3494 37.203Z" fill="url(#paint4_linear_76_434)"/>
<path d="M31.4839 20.8853C30.3712 19.6737 28.7747 18.9136 27.0001 18.9136C23.6388 18.9136 20.9136 21.6388 20.9136 25.0001C20.9136 26.7747 21.6737 28.3712 22.8853 29.4839L36.9674 43.5661C37.7128 43.5011 38.4582 43.429 39.203 43.3495C42.444 43.0036 45.0036 40.444 45.3495 37.203C45.429 36.4582 45.5011 35.7128 45.5661 34.9674L31.4839 20.8853Z" fill="url(#paint5_linear_76_434)"/>
<path d="M45.9264 29.0934L34.593 17.7603C34.3286 17.4133 33.912 17.188 33.442 17.188C32.6424 17.188 31.9939 17.8362 31.9939 18.6361C31.9939 19.1061 32.2192 19.5227 32.5662 19.7871L45.7238 32.945C45.8131 31.6615 45.8806 30.3775 45.9264 29.0934Z" fill="url(#paint6_linear_76_434)"/>
<path d="M15.0574 20.3911C15.1365 19.8321 15.1968 19.27 15.2974 18.7151C15.8677 15.5721 18.0928 13.4337 21.2744 13.3241C25.105 13.1925 28.9473 13.1855 32.7774 13.3235C36.2402 13.4482 38.7479 16.0122 38.8561 19.4761C38.9712 23.1543 38.9712 26.8415 38.8561 30.5196C38.7479 33.9836 36.241 36.5473 32.7777 36.6722C28.9476 36.8105 25.1044 36.814 21.2746 36.6702C17.8113 36.54 15.4172 33.9702 15.1855 30.5011C15.1655 30.201 15.1012 29.9036 15.0574 29.6049C15.0574 26.5336 15.0574 23.4622 15.0574 20.3911ZM27.0031 34.6193C28.756 34.6193 30.5105 34.6718 32.261 34.6072C35.0057 34.5054 36.6939 32.8674 36.7579 30.1253C36.8374 26.7087 36.8374 23.2874 36.7579 19.8704C36.6939 17.1289 35.0045 15.4526 32.261 15.3944C28.7789 15.3207 25.2929 15.3213 21.8107 15.3944C19.0881 15.4515 17.395 17.0939 17.321 19.8052C17.2271 23.265 17.2271 26.731 17.321 30.1909C17.395 32.9019 19.0881 34.5063 21.811 34.6072C23.5395 34.6715 25.2723 34.6193 27.0031 34.6193Z" fill="url(#paint7_linear_76_434)"/>
<path d="M15.0574 20.3911C15.1365 19.8321 15.1968 19.27 15.2974 18.7151C15.8677 15.5721 18.0928 13.4337 21.2744 13.3241C25.105 13.1925 28.9473 13.1855 32.7774 13.3235C36.2402 13.4482 38.7479 16.0122 38.8561 19.4761C38.9712 23.1543 38.9712 26.8415 38.8561 30.5196C38.7479 33.9836 36.241 36.5473 32.7777 36.6722C28.9476 36.8105 25.1044 36.814 21.2746 36.6702C17.8113 36.54 15.4172 33.9702 15.1855 30.5011C15.1655 30.201 15.1012 29.9036 15.0574 29.6049C15.0574 26.5336 15.0574 23.4622 15.0574 20.3911ZM27.0031 34.6193C28.756 34.6193 30.5105 34.6718 32.261 34.6072C35.0057 34.5054 36.6939 32.8674 36.7579 30.1253C36.8374 26.7087 36.8374 23.2874 36.7579 19.8704C36.6939 17.1289 35.0045 15.4526 32.261 15.3944C28.7789 15.3207 25.2929 15.3213 21.8107 15.3944C19.0881 15.4515 17.395 17.0939 17.321 19.8052C17.2271 23.265 17.2271 26.731 17.321 30.1909C17.395 32.9019 19.0881 34.5063 21.811 34.6072C23.5395 34.6715 25.2723 34.6193 27.0031 34.6193Z" fill="white"/>
<path d="M27.0001 18.9136C23.6388 18.9136 20.9136 21.6385 20.9136 24.9998C20.9136 28.3614 23.6388 31.0863 27.0001 31.0863C30.3617 31.0863 33.0866 28.3614 33.0866 24.9998C33.0866 21.6385 30.3617 18.9136 27.0001 18.9136ZM27.0001 28.9908C24.7959 28.9908 23.0091 27.204 23.0091 24.9998C23.0091 22.7956 24.7959 21.0088 27.0001 21.0088C29.2043 21.0088 30.9911 22.7956 30.9911 24.9998C30.9911 27.204 29.2043 28.9908 27.0001 28.9908Z" fill="white"/>
<path d="M34.8899 18.6361C34.8899 19.4357 34.2416 20.084 33.442 20.084C32.6424 20.084 31.9939 19.4357 31.9939 18.6361C31.9939 17.8362 32.6424 17.188 33.442 17.188C34.2416 17.188 34.8899 17.8362 34.8899 18.6361Z" fill="white"/>
</g>
</g>
<defs>
<filter id="filter0_d_76_434" x="0" y="0" width="54" height="54" filterUnits="userSpaceOnUse" color-interpolation-filters="sRGB">
<feFlood flood-opacity="0" result="BackgroundImageFix"/>
<feColorMatrix in="SourceAlpha" type="matrix" values="0 0 0 0 0 0 0 0 0 0 0 0 0 0 0 0 0 0 127 0" result="hardAlpha"/>
<feOffset dy="2"/>
<feGaussianBlur stdDeviation="4"/>
<feColorMatrix type="matrix" values="0 0 0 0 0 0 0 0 0 0 0 0 0 0 0 0 0 0 0.1 0"/>
<feBlend mode="normal" in2="BackgroundImageFix" result="effect1_dropShadow_76_434"/>
<feBlend mode="normal" in="SourceGraphic" in2="effect1_dropShadow_76_434" result="shape"/>
</filter>
<radialGradient id="paint0_radial_76_434" cx="0" cy="0" r="1" gradientUnits="userSpaceOnUse" gradientTransform="translate(15.7898 39.209) scale(41.9073)">
<stop stop-color="#FAE100"/>
<stop offset="0.0544" stop-color="#FADC04"/>
<stop offset="0.1167" stop-color="#FBCE0E"/>
<stop offset="0.1829" stop-color="#FCB720"/>
<stop offset="0.2514" stop-color="#FE9838"/>
<stop offset="0.3054" stop-color="#FF7950"/>
<stop offset="0.4922" stop-color="#FF1C74"/>
<stop offset="1" stop-color="#6C1CD1"/>
</radialGradient>
<linearGradient id="paint1_linear_76_434" x1="22.5746" y1="22.5108" x2="-41.8019" y2="-13.701" gradientUnits="userSpaceOnUse">
<stop stop-color="#A1B5D8" stop-opacity="0"/>
<stop offset="0.3094" stop-color="#90A2BD" stop-opacity="0.309804"/>
<stop offset="0.7554" stop-color="#7C8B9C" stop-opacity="0.756863"/>
<stop offset="1" stop-color="#748290"/>
</linearGradient>
<linearGradient id="paint2_linear_76_434" x1="27" y1="39.5447" x2="27" y2="45.4679" gradientUnits="userSpaceOnUse">
<stop stop-color="#FAE100" stop-opacity="0"/>
<stop offset="0.3068" stop-color="#FCA800" stop-opacity="0.305882"/>
<stop offset="0.6275" stop-color="#FE7300" stop-opacity="0.627451"/>
<stop offset="0.8685" stop-color="#FF5200" stop-opacity="0.866667"/>
<stop offset="1" stop-color="#FF4500"/>
</linearGradient>
<linearGradient id="paint3_linear_76_434" x1="24.8381" y1="22.7843" x2="15.4337" y2="13.3799" gradientUnits="userSpaceOnUse">
<stop stop-color="#833AB4" stop-opacity="0"/>
<stop offset="1" stop-color="#833AB4"/>
</linearGradient>
<linearGradient id="paint4_linear_76_434" x1="34.0433" y1="40.7555" x2="29.3494" y2="18.6272" gradientUnits="userSpaceOnUse">
<stop stop-color="#833AB4" stop-opacity="0"/>
<stop offset="1" stop-color="#833AB4"/>
</linearGradient>
<linearGradient id="paint5_linear_76_434" x1="35.8295" y1="33.8295" x2="16.9762" y2="14.9762" gradientUnits="userSpaceOnUse">
<stop stop-color="#833AB4" stop-opacity="0"/>
<stop offset="1" stop-color="#833AB4"/>
</linearGradient>
<linearGradient id="paint6_linear_76_434" x1="37.2279" y1="22.422" x2="30.9935" y2="16.1875" gradientUnits="userSpaceOnUse">
<stop stop-color="#833AB4" stop-opacity="0"/>
<stop offset="1" stop-color="#833AB4"/>
</linearGradient>
<linearGradient id="paint7_linear_76_434" x1="34.5449" y1="17.5075" x2="19.173" y2="32.8793" gradientUnits="userSpaceOnUse">
<stop stop-color="#833AB4"/>
<stop offset="0.0922" stop-color="#9C3495"/>
<stop offset="0.2927" stop-color="#DC2546"/>
<stop offset="0.392" stop-color="#FD1D1D"/>
<stop offset="0.5589" stop-color="#FC6831"/>
<stop offset="0.6887" stop-color="#FC9B40"/>
<stop offset="0.7521" stop-color="#FCAF45"/>
<stop offset="0.7806" stop-color="#FDB750"/>
<stop offset="0.8656" stop-color="#FECB6A"/>
<stop offset="0.9415" stop-color="#FFD87A"/>
<stop offset="1" stop-color="#FFDC80"/>
</linearGradient>
<clipPath id="clip0_76_434">
<rect width="38" height="38" fill="white" transform="translate(8 6)"/>
</clipPath>
</defs>
</svg>
